<svg id="Layer_1" data-name="Layer 1" xmlns="http://www.w3.org/2000/svg" viewBox="0 0 69.63 85.86"><defs><style>.cls-1{fill:#231f20;}</style></defs><path class="cls-1" d="M68.4,85.58H1.23a1.24,1.24,0,0,1-.83-.36,1.25,1.25,0,0,1-.4-.87V63.72a1.25,1.25,0,0,1,.4-.87,1.23,1.23,0,0,1,.87-.36H15.5V55.85a1.23,1.23,0,0,1,1.23-1.23H33.22V46.85a1.23,1.23,0,0,1,1.23-1.23H49.26V37.33a1.23,1.23,0,0,1,1.23-1.23H68.4a1.23,1.23,0,0,1,1.23,1.23v47a1.23,1.23,0,0,1-1.21,1.25Zm-66-2.46H67.21V38.56H51.72v8.29a1.23,1.23,0,0,1-1.23,1.23H35.68v7.77a1.23,1.23,0,0,1-1.23,1.23H18v6.6a1.23,1.23,0,0,1-1.23,1.23H2.46Z" transform="translate(0 0.28)"/><path class="cls-1" d="M6,62.06a4.1,4.1,0,0,1-2.18-.63,4.2,4.2,0,0,1-1.52-1.69,4.15,4.15,0,0,1,.44-4.35l7.86-10.8L13,24.85l-1.93.85L8.65,30a3.6,3.6,0,0,1-6.32-3.44l3.34-6.43a4.15,4.15,0,0,1,1.59-1.68l7.28-4.31a5.62,5.62,0,0,1,5-.36L26.4,16.6a5.47,5.47,0,0,1,2.48,2l2.41,3.51,4.87-1.42a3.68,3.68,0,0,1,2.29,7L31.85,30a4.25,4.25,0,0,1-2.18.15,4.36,4.36,0,0,1-2-1l-1.14-1-.39,3.79a10.16,10.16,0,0,1,5.4,10l-.85,11.19a4.25,4.25,0,0,1-.44,1.59,4,4,0,0,1-2.44,2.08,4.1,4.1,0,0,1-1.63.18,4.15,4.15,0,0,1-2.86-1.5A4.43,4.43,0,0,1,22.54,54a4.28,4.28,0,0,1-.16-1.63l.74-10.09a1.49,1.49,0,0,0-.15-.83,1.6,1.6,0,0,0-.59-.62,1.49,1.49,0,0,0-2,.53,1.69,1.69,0,0,0-.2.57l-.67,4.91a4.65,4.65,0,0,1-1.08,2.36L9.19,60.6A4.12,4.12,0,0,1,6,62.06ZM14.5,21.63a1.25,1.25,0,0,1,.5.11,1.27,1.27,0,0,1,.42.31,1.25,1.25,0,0,1,.3,1L13,45.2a1.18,1.18,0,0,1-.22.57L4.72,56.85a1.74,1.74,0,0,0-.3.61,1.94,1.94,0,0,0,0,.68,1.69,1.69,0,0,0,.66,1.12,1.65,1.65,0,0,0,1.19.33A1.72,1.72,0,0,0,7.36,59L16.5,47.66h0A2.2,2.2,0,0,0,17,46.52l.64-4.86a4,4,0,0,1,.52-1.5,4,4,0,0,1,7.33,2.38l-.7,10.05a1.69,1.69,0,0,0,.37,1.26,1.77,1.77,0,0,0,1.14.63,1.94,1.94,0,0,0,.68-.06,1.79,1.79,0,0,0,.61-.32,1.81,1.81,0,0,0,.43-.52,1.94,1.94,0,0,0,.2-.66l.84-11.19a7.69,7.69,0,0,0-4.55-7.82l-.12-.06a1.27,1.27,0,0,1-.61-.51,1.29,1.29,0,0,1-.18-.77l.72-7a1.28,1.28,0,0,1,.24-.62,1.26,1.26,0,0,1,.54-.4,1.24,1.24,0,0,1,.66-.06,1.15,1.15,0,0,1,.6.28l2.94,2.6a1.76,1.76,0,0,0,1.72.34l6.59-2.3a1.18,1.18,0,0,0,.68-.6,1.22,1.22,0,0,0,.07-.9,1.26,1.26,0,0,0-.58-.7,1.23,1.23,0,0,0-.9-.1l-5.73,1.67a1.24,1.24,0,0,1-1.36-.49l-2.9-4.24a3.17,3.17,0,0,0-1.43-1.2L18.57,16a3.08,3.08,0,0,0-2.77.2L8.52,20.56a1.78,1.78,0,0,0-.66.7L4.52,27.68a1.12,1.12,0,0,0-.07.86A1.11,1.11,0,0,0,5,29.2a1.14,1.14,0,0,0,1.53-.42l2.64-4.64a1.27,1.27,0,0,1,.58-.52L14,21.74A1.17,1.17,0,0,1,14.5,21.63Z" transform="translate(0 0.28)"/><path class="cls-1" d="M25.55,15.26a7.77,7.77,0,1,1,.48,0ZM25.23,2.47a5.15,5.15,0,0,0-.37,10.24,5.18,5.18,0,0,0,5.89-5.48,5.19,5.19,0,0,0-.51-2,5.11,5.11,0,0,0-3-2.62A5,5,0,0,0,25.23,2.47Z" transform="translate(0 0.28)"/></svg>