<svg id="Layer_1" data-name="Layer 1" xmlns="http://www.w3.org/2000/svg" viewBox="0 0 68.95 67.68"><defs><style>.cls-1{fill:#fff;fill-rule:evenodd;}</style></defs><path class="cls-1" d="M15.39,2.6A7.24,7.24,0,0,1,17,2.45H50.25a3.27,3.27,0,0,1,1.87.62A3,3,0,0,1,53.2,5.65V18.34a1.19,1.19,0,0,0,2.37,0V5.65a5.23,5.23,0,0,0-2-4.38A5.66,5.66,0,0,0,50.25.16H17A7.67,7.67,0,0,0,13.7.77,10.8,10.8,0,0,0,10.77,3L3.58,10a10.79,10.79,0,0,0-3,3.46A7.79,7.79,0,0,0,0,16.74v44.7c0,2.64.74,4.43,2.37,5.43,1.47.91,3.42,1,5.2,1H48.82c2.92.06,4.79-.71,5.81-2.2a7.23,7.23,0,0,0,.94-4.2h0a1.19,1.19,0,0,0-2.37,0,5.2,5.2,0,0,1-.54,2.93c-.39.58-1.29,1.23-3.8,1.18H7.59c-1.89,0-3.13-.11-3.93-.61s-1.27-1.23-1.27-3.5V16.74A7.87,7.87,0,0,1,2.54,15H10.9a4.42,4.42,0,0,0,3.69-1.44,4.4,4.4,0,0,0,.8-2.79ZM4,12.73H10.9c1.24,0,1.65-.33,1.81-.53A2.31,2.31,0,0,0,13,10.79V4.07l-.58.56-7.21,7,0,0C4.71,12.06,4.31,12.42,4,12.73ZM23.51,9.41a1.14,1.14,0,0,0-.09.58v2.17a1.87,1.87,0,0,0,.06.53l.18,0h1.77a1.15,1.15,0,1,1,0,2.29H24.31c-.27,0-.59,0-.89,0a3,3,0,0,1-1.14-.32,2.63,2.63,0,0,1-1.22-2.51V10a2.81,2.81,0,0,1,1-2.37A3.77,3.77,0,0,1,24.37,7H43.75A3.53,3.53,0,0,1,46,7.6a3,3,0,0,1,.95,2.51v2.05a2.75,2.75,0,0,1-.81,2.12,3.4,3.4,0,0,1-2.38.74H29.69a1.15,1.15,0,1,1,0-2.29H43.75a1.62,1.62,0,0,0,.76-.11.92.92,0,0,0,.07-.46V10.11a1.81,1.81,0,0,0-.1-.74l-.09,0a4.32,4.32,0,0,0-.64,0H24.37a2.75,2.75,0,0,0-.68.06A.48.48,0,0,0,23.51,9.41Zm0,0h0Zm21-.05h0Zm0,3.28h0Z" transform="translate(-0.02 -0.16)"/><path class="cls-1" d="M7.7,25.2a1.17,1.17,0,0,1,1.19-1.15h26a1.15,1.15,0,1,1,0,2.29h-26A1.16,1.16,0,0,1,7.7,25.2Zm0,6.85a1.16,1.16,0,0,1,1.19-1.14h26a1.15,1.15,0,1,1,0,2.29h-26A1.17,1.17,0,0,1,7.7,32.05Zm0,7a1.16,1.16,0,0,1,1.19-1.14h26a1.14,1.14,0,1,1,0,2.28h-26A1.16,1.16,0,0,1,7.7,39Zm0,7.09A1.17,1.17,0,0,1,8.89,45h26a1.15,1.15,0,1,1,0,2.29h-26A1.16,1.16,0,0,1,7.7,46.12Zm0,9.94a1.16,1.16,0,0,1,1.19-1.14H22.24a1.15,1.15,0,1,1,0,2.29H8.89A1.17,1.17,0,0,1,7.7,56.06Z" transform="translate(-0.02 -0.16)"/><path class="cls-1" d="M54.39,42.92A6.18,6.18,0,1,0,48,36.74,6.29,6.29,0,0,0,54.39,42.92Zm0,2.28a8.46,8.46,0,1,0-8.75-8.46A8.6,8.6,0,0,0,54.39,45.2Z" transform="translate(-0.02 -0.16)"/><path class="cls-1" d="M61.7,26.62a4.67,4.67,0,0,1-7.31-2.28,4.68,4.68,0,0,1-7.32,2.28,4.53,4.53,0,0,1-4.72,6.19,4.51,4.51,0,0,1,0,7.86,4.54,4.54,0,0,1,4.72,6.2,4.67,4.67,0,0,1,7.32,2.27,4.66,4.66,0,0,1,7.31-2.27,4.55,4.55,0,0,1,4.73-6.2,4.5,4.5,0,0,1,0-7.86A4.54,4.54,0,0,1,61.7,26.62Zm4.94,14.17Zm-24.51-8.1Zm14.48-9.22a2.26,2.26,0,0,0-4.44,0,2.27,2.27,0,0,1-3.83,1.18c-1.79-1.78-4.76.24-3.64,2.46l.12.24a2.24,2.24,0,0,1-2.43,3.17,2.23,2.23,0,0,0-1.33,4.21,2.26,2.26,0,0,1,0,4A2.24,2.24,0,0,0,42.39,43a2.24,2.24,0,0,1,2.43,3.16l-.12.24c-1.12,2.22,1.85,4.24,3.64,2.47A2.27,2.27,0,0,1,52.17,50a2.26,2.26,0,0,0,4.44,0,2.27,2.27,0,0,1,3.83-1.18c1.78,1.77,4.75-.25,3.63-2.47L64,46.13A2.24,2.24,0,0,1,66.38,43a2.24,2.24,0,0,0,1.34-4.22,2.25,2.25,0,0,1,0-4,2.23,2.23,0,0,0-1.34-4.21A2.24,2.24,0,0,1,64,27.35l.12-.24c1.12-2.22-1.85-4.24-3.63-2.46A2.27,2.27,0,0,1,56.61,23.47Z" transform="translate(-0.02 -0.16)"/><path class="cls-1" d="M48.12,46.8A1.16,1.16,0,0,1,49.3,48v9h0v.64c0,.3,0,.55,0,.79l.2-.11,4-2.51a1.19,1.19,0,0,1,1.21,0l4.65,2.47v-.09c0-.18,0-.37,0-.58v-.06c0-.23,0-.48,0-.74V48.52a1.18,1.18,0,0,1,2.36,0v8.23c0,.23,0,.45,0,.68v.06c0,.21,0,.42,0,.63a4.68,4.68,0,0,1-.15,1.37,1.87,1.87,0,0,1-.45.78,1.72,1.72,0,0,1-1,.49,3.1,3.1,0,0,1-1.84-.5L54.2,58.08l-3.43,2.14h0a4.34,4.34,0,0,1-1.77.71,1.71,1.71,0,0,1-1.78-1,3.71,3.71,0,0,1-.27-1.45c0-.3,0-.65,0-1V48A1.16,1.16,0,0,1,48.12,46.8Z" transform="translate(-0.02 -0.16)"/></svg>