<svg id="Layer_1" data-name="Layer 1" xmlns="http://www.w3.org/2000/svg" viewBox="0 0 88.69 63.14"><defs><style>.cls-1{fill:#fff;}</style></defs><path class="cls-1" d="M37.41,24.11V22.79c0-2.18-2.09-3.94-4.66-3.94H16.39a7.09,7.09,0,0,0-.7-11.15,10.52,10.52,0,0,0-13.15.6,7.05,7.05,0,0,0,.38,10.89,4,4,0,0,0-2.76,3.6V59.63c0,2.17,2.08,3.94,4.66,3.94H6.37a5.14,5.14,0,0,0,3.1-1,5.15,5.15,0,0,0,3.11,1h1.55c2.57,0,4.65-1.77,4.65-3.94V28.05h14C35.32,28.05,37.41,26.29,37.41,24.11ZM9.47,8.32c3.43,0,6.21,2.36,6.21,5.26s-2.78,5.27-6.21,5.27-6.21-2.36-6.21-5.27S6,8.32,9.47,8.32Zm7.76,17.1a1.45,1.45,0,0,0-1.55,1.32V59.63a1.45,1.45,0,0,1-1.55,1.31H12.58A1.45,1.45,0,0,1,11,59.63V38.58H7.92V59.63a1.45,1.45,0,0,1-1.55,1.31H4.82a1.45,1.45,0,0,1-1.56-1.31V22.79a1.45,1.45,0,0,1,1.56-1.31H32.75a1.45,1.45,0,0,1,1.55,1.31v1.32a1.45,1.45,0,0,1-1.55,1.31Z" transform="translate(-0.15 -0.43)"/><path class="cls-1" d="M84,.43H27.26c-2.69,0-4.9,1.42-4.93,3.22V14.83h3.91V3.68c0-.35.42-.63.94-.63H83.92c.51,0,.94.28.94.63V39c0,.35-.43.63-.94.63H27.18c-.52,0-.94-.28-.94-.63V31.85H22.33v7.23c0,1.79,2.17,3.24,4.85,3.24H53.63V51L40.42,61.1l2.94,1.73,12.23-9.35,12.22,9.35,2.94-1.73L57.54,51V42.32H84c2.68,0,4.85-1.45,4.86-3.24V3.73C88.88,1.93,86.72.45,84,.43Z" transform="translate(-0.15 -0.43)"/><path class="cls-1" d="M80.86,7c0-.74-.87-1.35-2-1.35h-7.8V8.4H77v4.06h3.9V7Z" transform="translate(-0.15 -0.43)"/><path class="cls-1" d="M80.86,14.71H77.32v3h3.54Z" transform="translate(-0.15 -0.43)"/><path class="cls-1" d="M80.86,34.26H77.32v3h3.54Z" transform="translate(-0.15 -0.43)"/><path class="cls-1" d="M71.11,34.26H67.56v3h3.55Z" transform="translate(-0.15 -0.43)"/><path class="cls-1" d="M61.35,34.26H56.92v3h4.43Z" transform="translate(-0.15 -0.43)"/></svg>