<svg id="Layer_1" data-name="Layer 1" xmlns="http://www.w3.org/2000/svg" viewBox="0 0 88.71 63.14"><defs><style>.cls-1{fill:#231f20;}</style></defs><path class="cls-1" d="M37.26,23.68V22.36c0-2.18-2.09-3.94-4.66-3.94H16.24a7.1,7.1,0,0,0-.7-11.15,10.51,10.51,0,0,0-13.15.6,7.05,7.05,0,0,0-.63,10,6.91,6.91,0,0,0,1,.94A4,4,0,0,0,0,22.36V59.2c0,2.17,2.08,3.94,4.66,3.94H6.22a5.17,5.17,0,0,0,3.1-1,5.18,5.18,0,0,0,3.11,1H14c2.57,0,4.65-1.77,4.65-3.94V27.62h14C35.17,27.62,37.26,25.86,37.26,23.68ZM9.32,7.89c3.43,0,6.21,2.36,6.21,5.26s-2.78,5.27-6.21,5.27-6.21-2.36-6.21-5.27S5.85,7.89,9.32,7.89ZM17.08,25a1.45,1.45,0,0,0-1.55,1.32V59.2A1.44,1.44,0,0,1,14,60.51H12.43a1.45,1.45,0,0,1-1.58-1.31h0V38.15H7.77V59.2a1.44,1.44,0,0,1-1.55,1.31H4.67A1.45,1.45,0,0,1,3.11,59.2V22.36a1.45,1.45,0,0,1,1.56-1.31H32.6a1.44,1.44,0,0,1,1.55,1.31v1.32A1.44,1.44,0,0,1,32.6,25Z" transform="translate(0 0)"/><path class="cls-1" d="M83.85,0H27.11c-2.69,0-4.9,1.42-4.93,3.22V14.4h3.91V3.25c0-.35.42-.63.94-.63H83.77c.51,0,.94.28.94.63V38.57c0,.35-.43.63-.94.63H27c-.52,0-.94-.28-.94-.63V31.42H22.18v7.23c0,1.79,2.17,3.24,4.85,3.24H53.48v8.68L40.27,60.67l2.94,1.73,12.23-9.35L67.66,62.4l2.94-1.73L57.39,50.57V41.89H83.85c2.68,0,4.85-1.45,4.86-3.24V3.3C88.73,1.5,86.57,0,83.85,0Z" transform="translate(0 0)"/><path class="cls-1" d="M80.71,6.57c0-.74-.87-1.35-2-1.35h-7.8V8h5.94V12h3.9V6.57Z" transform="translate(0 0)"/><path class="cls-1" d="M80.71,14.28H77.17v3h3.54Z" transform="translate(0 0)"/><path class="cls-1" d="M80.71,33.83H77.17v3h3.54Z" transform="translate(0 0)"/><path class="cls-1" d="M71,33.83H67.41v3H71Z" transform="translate(0 0)"/><path class="cls-1" d="M61.2,33.83H56.77v3H61.2Z" transform="translate(0 0)"/></svg>