<svg id="Layer_1" data-name="Layer 1" xmlns="http://www.w3.org/2000/svg" viewBox="0 0 69.67 85.58"><defs><style>.cls-1{fill:#fff;}</style></defs><path class="cls-1" d="M69,86.73H1.83A1.23,1.23,0,0,1,1,86.37,1.24,1.24,0,0,1,.6,85.5V64.87A1.24,1.24,0,0,1,1,64a1.23,1.23,0,0,1,.87-.36H16.1V57a1.23,1.23,0,0,1,.36-.87,1.24,1.24,0,0,1,.87-.36H33.82V48a1.24,1.24,0,0,1,.36-.87,1.23,1.23,0,0,1,.87-.36H49.86V38.48a1.23,1.23,0,0,1,.36-.87,1.24,1.24,0,0,1,.87-.36H69a1.24,1.24,0,0,1,.87.36,1.23,1.23,0,0,1,.36.87v47A1.23,1.23,0,0,1,69,86.73Zm-66-2.46H67.81V39.71H52.32V48a1.23,1.23,0,0,1-1.23,1.23H36.28V57a1.23,1.23,0,0,1-1.23,1.23H18.56v6.6a1.23,1.23,0,0,1-1.23,1.23H3.06Z" transform="translate(-0.6 -1.15)"/><path class="cls-1" d="M6.62,63.21a4.12,4.12,0,0,1-2.18-.63,4.2,4.2,0,0,1-1.52-1.69,4.14,4.14,0,0,1,.44-4.35l7.86-10.8L13.62,26l-1.93.85L9.25,31.14A3.6,3.6,0,0,1,2.93,27.7l3.34-6.43a4.15,4.15,0,0,1,1.59-1.68l7.28-4.31a5.61,5.61,0,0,1,5-.36L27,17.75a5.49,5.49,0,0,1,2.48,2l2.41,3.51,4.87-1.42a3.66,3.66,0,0,1,2.73.3A3.68,3.68,0,0,1,41.05,27a3.65,3.65,0,0,1-2,1.83l-6.6,2.3a4.25,4.25,0,0,1-2.18.15,4.3,4.3,0,0,1-2-1l-1.14-1-.39,3.79a10.14,10.14,0,0,1,5.4,10l-.85,11.19a4.2,4.2,0,0,1-.44,1.59,4.25,4.25,0,0,1-1,1.29,4.31,4.31,0,0,1-1.44.79,4.1,4.1,0,0,1-1.63.18,4.16,4.16,0,0,1-2.86-1.5,4.43,4.43,0,0,1-.78-1.45,4.28,4.28,0,0,1-.16-1.63l.74-10.09a1.5,1.5,0,0,0-.15-.83,1.6,1.6,0,0,0-.59-.62,1.53,1.53,0,0,0-1.63.09,1.53,1.53,0,0,0-.4.44,1.69,1.69,0,0,0-.2.57L20.08,48A4.66,4.66,0,0,1,19,50.36L9.79,61.75a4.13,4.13,0,0,1-3.17,1.46ZM15.1,22.78a1.25,1.25,0,0,1,.5.11,1.27,1.27,0,0,1,.42.31,1.26,1.26,0,0,1,.3,1L13.61,46.35a1.14,1.14,0,0,1-.22.57L5.32,58a1.74,1.74,0,0,0-.3.61,1.76,1.76,0,0,0,0,.68,1.53,1.53,0,0,0,.22.63,1.59,1.59,0,0,0,.44.49,1.68,1.68,0,0,0,1.19.33,1.72,1.72,0,0,0,1.09-.57L17.1,48.81l0,0a2.2,2.2,0,0,0,.51-1.14l.64-4.86a4,4,0,0,1,.52-1.5,4.07,4.07,0,0,1,1.06-1.17,3.94,3.94,0,0,1,5.47.8,3.93,3.93,0,0,1,.8,2.75L25.4,53.74A1.71,1.71,0,0,0,25.77,55a1.79,1.79,0,0,0,1.14.63,1.94,1.94,0,0,0,.68-.06,1.79,1.79,0,0,0,.61-.32,1.81,1.81,0,0,0,.43-.52,1.94,1.94,0,0,0,.2-.66l.84-11.19a7.68,7.68,0,0,0-4.55-7.82L25,35a1.23,1.23,0,0,1-.61-.51,1.29,1.29,0,0,1-.18-.77l.72-7a1.28,1.28,0,0,1,.24-.62,1.26,1.26,0,0,1,.54-.4,1.24,1.24,0,0,1,.66-.06,1.15,1.15,0,0,1,.6.28l2.94,2.6a1.75,1.75,0,0,0,1.72.34l6.59-2.3a1.18,1.18,0,0,0,.68-.6,1.22,1.22,0,0,0,.07-.9,1.26,1.26,0,0,0-.58-.7,1.23,1.23,0,0,0-.9-.1l-5.73,1.67a1.25,1.25,0,0,1-1.36-.49l-2.9-4.24A3.16,3.16,0,0,0,26.07,20l-6.9-2.82a3.08,3.08,0,0,0-2.77.2L9.12,21.71a1.78,1.78,0,0,0-.66.7L5.12,28.83a1.12,1.12,0,0,0-.07.86,1.11,1.11,0,0,0,.54.66,1.14,1.14,0,0,0,1.53-.42l2.64-4.64a1.23,1.23,0,0,1,.58-.52l4.27-1.88A1.17,1.17,0,0,1,15.1,22.78Z" transform="translate(-0.6 -1.15)"/><path class="cls-1" d="M26.15,16.41a7.77,7.77,0,1,1,.48,0ZM25.83,3.62a5.13,5.13,0,0,0-2.81,1,5.17,5.17,0,0,0,2.44,9.24,5.24,5.24,0,0,0,3-.48,5.22,5.22,0,0,0,2.89-5,5.13,5.13,0,0,0-.51-2,5.1,5.1,0,0,0-3-2.62A5.09,5.09,0,0,0,25.83,3.62Z" transform="translate(-0.6 -1.15)"/></svg>