<svg id="Layer_1" data-name="Layer 1" xmlns="http://www.w3.org/2000/svg" viewBox="0 0 82 71"><defs><style>.cls-1{fill:#fff;fill-rule:evenodd;}</style></defs><path class="cls-1" d="M61.78.39a1.58,1.58,0,0,1,1.35.27l18.4,14a1.58,1.58,0,0,1-.6,2.81l-6.59,1.5L73.1,26.13a1.61,1.61,0,0,1-.62,1C62,34.82,48.35,30.81,43.78,21.31a1.57,1.57,0,0,1-.14-.93l1.12-7.27L39,8.91a1.61,1.61,0,0,1-.62-1.58A1.58,1.58,0,0,1,39.58,6.1ZM47.64,15.23l-.79,5.14c3.81,7.18,14.57,10.53,23.23,4.57l.9-5.19L58.92,22.8a1.61,1.61,0,0,1-1.33-.26Zm-4-6.9L58.86,19.54l13.71-3.46h0l4.3-1L61.83,3.65Zm-32.19,15c-.15.18-.32.59-.32,1.76v35.5a10.32,10.32,0,0,0,.1,1.65,1.25,1.25,0,0,0,.11.39l.2.06a6,6,0,0,0,1.35.12H66.78a4.11,4.11,0,0,0,2-.26c.1-.07.51-.35.51-2V33a1.59,1.59,0,0,1,3.18,0V60.56a8,8,0,0,1-.28,2.22H78a1.59,1.59,0,0,1,1.58,1.59,6.67,6.67,0,0,1-6.06,7H6.19a4.44,4.44,0,0,1-2.44-.83A8,8,0,0,1,2,68.78,8,8,0,0,1,.16,64.21a1.59,1.59,0,0,1,.47-1.13,1.64,1.64,0,0,1,1.14-.46l6.3.09a12.86,12.86,0,0,1-.14-2.15V25.06A5.69,5.69,0,0,1,9,21.24c1-1.19,2.61-1.57,4.47-1.57H40a1.59,1.59,0,1,1,0,3.17H13.48C11.92,22.84,11.52,23.18,11.42,23.3ZM12.83,66l-9-.13a7.32,7.32,0,0,0,.65,1,4.92,4.92,0,0,0,1.07,1,1.32,1.32,0,0,0,.66.28H73.37A3.38,3.38,0,0,0,76.19,66H12.83Zm-1.54-3.37h0ZM31.69,31a1.59,1.59,0,0,1,1.55-.06L54.81,42a1.58,1.58,0,0,1,0,2.82L33.23,55.8a1.57,1.57,0,0,1-1.54-.07,1.59,1.59,0,0,1-.76-1.35v-22A1.59,1.59,0,0,1,31.69,31Zm2.41,4V51.8l16.5-8.36Z" transform="translate(-0.16 -0.34)"/></svg>