<svg id="Layer_1" data-name="Layer 1" xmlns="http://www.w3.org/2000/svg" viewBox="0 0 82.01 71.03"><defs><style>.cls-1{fill:#231f20;fill-rule:evenodd;}</style></defs><path class="cls-1" d="M61.62.05A1.59,1.59,0,0,1,63,.32l18.4,14a1.58,1.58,0,0,1-.6,2.81l-6.59,1.5-1.24,7.16a1.57,1.57,0,0,1-.62,1C61.84,34.48,48.19,30.47,43.62,21a1.57,1.57,0,0,1-.14-.93l1.12-7.27-5.76-4.2A1.61,1.61,0,0,1,38.22,7a1.58,1.58,0,0,1,1.2-1.23ZM47.48,14.89,46.69,20c3.81,7.18,14.57,10.53,23.23,4.57l.9-5.19L58.76,22.46a1.61,1.61,0,0,1-1.33-.26Zm-4-6.9L58.7,19.2l13.71-3.46h0l4.3-1-15-11.43ZM11.29,23c-.15.18-.32.59-.32,1.76v35.5a10.16,10.16,0,0,0,.1,1.65,1.25,1.25,0,0,0,.11.39l.2.06a6.11,6.11,0,0,0,1.35.12H66.62a4.13,4.13,0,0,0,2-.26c.1-.07.51-.35.51-2V32.66a1.59,1.59,0,0,1,3.18,0V60.22A7.91,7.91,0,0,1,72,62.44h5.81A1.6,1.6,0,0,1,79.42,64a6.68,6.68,0,0,1-6.06,7H6a4.44,4.44,0,0,1-2.44-.83,8.11,8.11,0,0,1-1.75-1.76A8,8,0,0,1,0,63.87a1.59,1.59,0,0,1,1.61-1.59l6.3.09a12.87,12.87,0,0,1-.14-2.15V24.72A5.72,5.72,0,0,1,8.84,20.9c1-1.19,2.61-1.57,4.47-1.57H39.84a1.59,1.59,0,0,1,.25,3.17,1,1,0,0,1-.25,0H13.32c-1.56,0-2,.34-2.06.46Zm1.38,42.67-9-.13a8.15,8.15,0,0,0,.65,1,5.08,5.08,0,0,0,1.07,1,1.34,1.34,0,0,0,.66.28H73.21A3.39,3.39,0,0,0,76,65.66Zm-1.54-3.37Zm20.4-31.63a1.59,1.59,0,0,1,1.55-.06L54.65,41.66a1.58,1.58,0,0,1,.7,2.12,1.63,1.63,0,0,1-.7.7l-21.58,11a1.57,1.57,0,0,1-1.54-.07A1.59,1.59,0,0,1,30.77,54V32A1.58,1.58,0,0,1,31.53,30.66Zm2.41,4v16.8l16.5-8.36Z" transform="translate(0 0)"/></svg>