<svg id="Layer_1" data-name="Layer 1" xmlns="http://www.w3.org/2000/svg" viewBox="0 0 13.47 16.73"><defs><style>.cls-1{opacity:0.5;}.cls-2,.cls-3{fill:#2565af;}.cls-3{fill-rule:evenodd;}</style></defs><g class="cls-1"><path class="cls-2" d="M11.81,16.87H1.71A1.65,1.65,0,0,1,0,15.25V7.68A1.65,1.65,0,0,1,1.71,6.05h10.1A1.66,1.66,0,0,1,13.5,7.68v7.57A1.66,1.66,0,0,1,11.81,16.87ZM1.71,7.14a.55.55,0,0,0-.56.54v7.57a.55.55,0,0,0,.56.54h10.1a.55.55,0,0,0,.56-.54V7.68a.55.55,0,0,0-.56-.54Z" transform="translate(-0.03 -0.14)"/><path class="cls-2" d="M10.68,6.94c-.3,0-.73.24-.73-.06V4.46a3.29,3.29,0,0,0-6.58,0V6.62c0,.3-.07.32-.37.32s-.73,0-.73-.32V4.46A4.36,4.36,0,0,1,6.66.14a4.36,4.36,0,0,1,4.39,4.32V6.94C11.05,7.24,11,6.94,10.68,6.94Z" transform="translate(-0.03 -0.14)"/><path class="cls-3" d="M7.48,11.72a1.5,1.5,0,0,0,.76-1.31A1.52,1.52,0,1,0,6,11.72v1.73a.76.76,0,1,0,1.52,0Z" transform="translate(-0.03 -0.14)"/></g></svg>