<svg width="36" height="36" viewBox="0 0 36 36" fill="none" xmlns="http://www.w3.org/2000/svg">
<g opacity="0.65">
<path d="M9.94785 10.1439C11.4221 8.5907 13.4176 7.71394 15.5005 7.70192C17.0571 7.70049 18.5798 8.18501 19.8759 9.09503C21.1721 10.0052 22.1837 11.3002 22.7818 12.8171C23.3799 14.3341 23.5372 16.004 23.2336 17.6154C22.93 19.2268 22.1793 20.7063 21.0775 21.8672C19.9757 23.0281 18.5724 23.818 17.0455 24.1383C15.5186 24.4586 13.9357 24.295 12.4968 23.668C11.0578 23.041 9.82668 21.9783 8.96005 20.6134C8.09344 19.2485 7.6305 17.6431 7.63045 16.0003C7.63998 13.8018 8.47343 11.6973 9.94785 10.1439ZM15.5001 5.875C13.5949 5.875 11.7332 6.4697 10.1502 7.58306C8.56737 8.69636 7.33461 10.278 6.60689 12.1274C5.87918 13.9767 5.68887 16.0113 6.05978 17.9741C6.43069 19.937 7.34636 21.7408 8.69193 23.1572C10.0376 24.5736 11.7528 25.539 13.6211 25.9302C15.4895 26.3214 17.426 26.1206 19.1855 25.3534C20.945 24.5862 22.4477 23.2876 23.5046 21.6227C24.5614 19.9578 25.1251 18.0011 25.1251 16C25.1251 13.3167 24.1125 10.7421 22.3082 8.84284C20.5037 6.94338 18.0549 5.875 15.5001 5.875Z" fill="#333333" stroke="#333333" stroke-width="0.25"/>
<path d="M30.8646 29.6034L30.8645 29.6034L25.1832 23.9117L25.0953 23.8237L25.0069 23.9111L23.9122 24.9927L23.8228 25.081L23.9116 25.1699L29.5929 30.8616C29.5929 30.8616 29.593 30.8616 29.593 30.8616C29.6759 30.9447 29.7745 31.0107 29.883 31.0559C29.9916 31.1011 30.108 31.1246 30.2256 31.125C30.3432 31.1254 30.4598 31.1028 30.5686 31.0583C30.6775 31.0139 30.7765 30.9486 30.8601 30.866C30.9436 30.7835 31.01 30.6853 31.0555 30.5772C31.101 30.469 31.1246 30.3529 31.1251 30.2356C31.1255 30.1184 31.1027 30.0021 31.058 29.8937C31.0132 29.7852 30.9475 29.6865 30.8646 29.6034Z" fill="#333333" stroke="#333333" stroke-width="0.25"/>
</g>
</svg>
