<svg width="24" height="24" viewBox="0 0 24 24" fill="none" xmlns="http://www.w3.org/2000/svg">
<path fill-rule="evenodd" clip-rule="evenodd" d="M12 21.0613C17.0044 21.0613 21.0612 17.0044 21.0612 12C21.0612 6.99567 17.0044 2.93882 12 2.93882C6.99561 2.93882 2.93876 6.99567 2.93876 12C2.93876 17.0044 6.99561 21.0613 12 21.0613ZM12 22.0409C17.5454 22.0409 22.0408 17.5454 22.0408 12C22.0408 6.45465 17.5454 1.95923 12 1.95923C6.45459 1.95923 1.95917 6.45465 1.95917 12C1.95917 17.5454 6.45459 22.0409 12 22.0409Z" fill="#8DC63F"/>
<path fill-rule="evenodd" clip-rule="evenodd" d="M16.1632 12L9.91834 8.39453L9.91834 15.6055L16.1632 12ZM14.2041 12L10.8979 10.0912L10.8979 13.9088L14.2041 12Z" fill="#8DC63F"/>
</svg>
