<svg width="22" height="20" viewBox="0 0 22 20" fill="none" xmlns="http://www.w3.org/2000/svg">
<path fill-rule="evenodd" clip-rule="evenodd" d="M13.5207 5.87896L11.2583 1.4711C11.1506 1.26144 10.8493 1.26144 10.7417 1.4711L8.47924 5.87896C8.18432 6.45354 7.6309 6.85331 6.99015 6.95463L2.07466 7.73191C1.84085 7.76888 1.74774 8.0538 1.91504 8.22035L5.43224 11.7218C5.89072 12.1783 6.10211 12.8251 6.00102 13.4623L5.22556 18.3505C5.18867 18.5831 5.43244 18.7591 5.64345 18.6524L10.0797 16.4086C10.6579 16.1161 11.342 16.1161 11.9203 16.4086L16.3565 18.6524C16.5675 18.7591 16.8113 18.5831 16.7744 18.3505L15.9989 13.4623C15.8979 12.8251 16.1092 12.1783 16.5677 11.7218L20.0849 8.22035C20.2522 8.0538 20.1591 7.76888 19.9253 7.73191L15.0098 6.95463C14.3691 6.85331 13.8156 6.45354 13.5207 5.87896ZM12.0331 1.07796C11.6026 0.239313 10.3974 0.239313 9.9669 1.07796L7.70443 5.48582C7.5359 5.81415 7.21966 6.04259 6.85352 6.10049L1.93803 6.87777C1.0028 7.02565 0.63036 8.16532 1.29955 8.83151L4.81675 12.333C5.07874 12.5938 5.19953 12.9634 5.14177 13.3276L4.3663 18.2158C4.21876 19.1458 5.19382 19.8502 6.03787 19.4233L10.4741 17.1795C10.8045 17.0123 11.1954 17.0123 11.5259 17.1795L15.9621 19.4233C16.8061 19.8502 17.7812 19.1458 17.6337 18.2158L16.8582 13.3276C16.8004 12.9634 16.9212 12.5938 17.1832 12.333L20.7004 8.83151C21.3696 8.16532 20.9972 7.02565 20.0619 6.87777L15.1464 6.10049C14.7803 6.04259 14.4641 5.81415 14.2955 5.48582L12.0331 1.07796Z" fill="#FCCA77" stroke="#FCCA77" stroke-width="0.25"/>
</svg>
