<svg width="24" height="24" viewBox="0 0 24 24" fill="none" xmlns="http://www.w3.org/2000/svg">
<path d="M23.5861 19.8621H0.413812C0.185297 19.8621 0 19.6768 0 19.4483V4.55175C0 4.32324 0.185297 4.13794 0.413812 4.13794H23.5862C23.8147 4.13794 24 4.32324 24 4.55175V19.4483C24 19.6768 23.8147 19.8621 23.5861 19.8621Z" fill="#F5F5F5"/>
<path d="M24 5.34755H0V4.55175C0 4.32324 0.185297 4.13794 0.413812 4.13794H23.5862C23.8147 4.13794 24 4.32324 24 4.55175L24 5.34755Z" fill="#FF4B55"/>
<path d="M24 8.9761H0V10.1857H24V8.9761Z" fill="#FF4B55"/>
<path d="M24 6.55692H0V7.76647H24V6.55692Z" fill="#FF4B55"/>
<path d="M24 12.6048H0.413812C0.185297 12.6048 0 12.4195 0 12.191V11.3952H24V12.6048Z" fill="#FF4B55"/>
<path d="M24 16.2338H0V17.4433H24V16.2338Z" fill="#FF4B55"/>
<path d="M23.5861 19.8621H0.413812C0.185297 19.8621 0 19.6768 0 19.4483V18.6525H24V19.4483C24 19.6768 23.8147 19.8621 23.5861 19.8621Z" fill="#FF4B55"/>
<path d="M24 13.8146H0V15.0241H24V13.8146Z" fill="#FF4B55"/>
<path d="M10.7586 4.138H0.413812C0.185297 4.138 0 4.32325 0 4.55177V12.191C0 12.4195 0.185297 12.6048 0.413812 12.6048H10.7586C10.9872 12.6048 11.1724 12.4195 11.1724 12.191V4.55177C11.1724 4.32325 10.9871 4.138 10.7586 4.138Z" fill="#41479B"/>
<path d="M1.1621 5.08783L1.2537 5.36252L1.54324 5.36472C1.58074 5.36505 1.59626 5.41286 1.56612 5.43513L1.3332 5.60716L1.42057 5.88321C1.43192 5.91893 1.39118 5.94855 1.36067 5.92671L1.12512 5.75838L0.889573 5.92675C0.859057 5.94855 0.818417 5.91897 0.829667 5.88325L0.917042 5.60721L0.68412 5.43518C0.65398 5.41286 0.669495 5.3651 0.706995 5.36477L0.996542 5.36257L1.08814 5.08788C1.09995 5.05226 1.1502 5.05226 1.1621 5.08783Z" fill="#F5F5F5"/>
<path d="M1.1621 6.52463L1.2537 6.79932L1.54324 6.80152C1.58074 6.80185 1.59626 6.84966 1.56612 6.87193L1.3332 7.04396L1.42057 7.32C1.43192 7.35572 1.39118 7.38535 1.36067 7.3635L1.12512 7.19517L0.889573 7.36355C0.859057 7.38535 0.818417 7.35577 0.829667 7.32005L0.917042 7.044L0.68412 6.87197C0.65398 6.84966 0.669495 6.80189 0.706995 6.80157L0.996542 6.79936L1.08814 6.52468C1.09995 6.4891 1.1502 6.4891 1.1621 6.52463Z" fill="#F5F5F5"/>
<path d="M1.1621 7.96152L1.2537 8.23621L1.54324 8.23841C1.58074 8.23874 1.59626 8.28655 1.56612 8.30882L1.3332 8.48085L1.42057 8.75689C1.43192 8.79261 1.39118 8.82224 1.36067 8.80039L1.12512 8.63207L0.889573 8.80044C0.859057 8.82224 0.818417 8.79266 0.829667 8.75694L0.917042 8.48089L0.68412 8.30886C0.65398 8.28655 0.669495 8.23878 0.706995 8.23846L0.996542 8.23625L1.08814 7.96157C1.09995 7.92599 1.1502 7.92599 1.1621 7.96152Z" fill="#F5F5F5"/>
<path d="M1.1621 9.39847L1.2537 9.67316L1.54324 9.67536C1.58074 9.67569 1.59626 9.7235 1.56612 9.74577L1.3332 9.9178L1.42057 10.1938C1.43192 10.2296 1.39118 10.2592 1.36067 10.2373L1.12512 10.069L0.889573 10.2374C0.859057 10.2592 0.818417 10.2296 0.829667 10.1939L0.917042 9.91785L0.68412 9.74582C0.65398 9.7235 0.669495 9.67574 0.706995 9.67541L0.996542 9.67321L1.08814 9.39852C1.09995 9.3629 1.1502 9.3629 1.1621 9.39847Z" fill="#F5F5F5"/>
<path d="M1.1621 10.8354L1.2537 11.1101L1.54324 11.1123C1.58074 11.1126 1.59626 11.1604 1.56612 11.1827L1.3332 11.3547L1.42057 11.6307C1.43192 11.6665 1.39118 11.6961 1.36067 11.6742L1.12512 11.5059L0.889573 11.6743C0.859057 11.6961 0.818417 11.6665 0.829667 11.6308L0.917042 11.3547L0.68412 11.1827C0.65398 11.1604 0.669495 11.1126 0.706995 11.1123L0.996542 11.1101L1.08814 10.8354C1.09995 10.7997 1.1502 10.7997 1.1621 10.8354Z" fill="#F5F5F5"/>
<path d="M2.2774 5.79218L2.36899 6.06687L2.65854 6.06907C2.69604 6.0694 2.71155 6.11721 2.68141 6.13948L2.44849 6.31151L2.53587 6.58756C2.54721 6.62327 2.50648 6.6529 2.47596 6.63105L2.24041 6.46268L2.00487 6.63105C1.97435 6.65285 1.93371 6.62327 1.94496 6.58756L2.03234 6.31151L1.79942 6.13948C1.76928 6.11717 1.78479 6.0694 1.82229 6.06907L2.11184 6.06687L2.20343 5.79218C2.2152 5.75665 2.26554 5.75665 2.2774 5.79218Z" fill="#F5F5F5"/>
<path d="M2.2774 7.22914L2.36899 7.50382L2.65854 7.50603C2.69604 7.50635 2.71155 7.55417 2.68141 7.57643L2.44849 7.74846L2.53587 8.02451C2.54721 8.06023 2.50648 8.08985 2.47596 8.06801L2.24041 7.89963L2.00487 8.06801C1.97435 8.0898 1.93371 8.06027 1.94496 8.02451L2.03234 7.74846L1.79942 7.57643C1.76928 7.55412 1.78479 7.50635 1.82229 7.50603L2.11184 7.50382L2.20343 7.22914C2.2152 7.19356 2.26554 7.19356 2.2774 7.22914Z" fill="#F5F5F5"/>
<path d="M2.2774 8.66609L2.36899 8.94077L2.65854 8.94298C2.69604 8.94331 2.71155 8.99112 2.68141 9.01338L2.44849 9.18542L2.53587 9.46146C2.54721 9.49718 2.50648 9.52681 2.47596 9.50496L2.24041 9.33659L2.00487 9.50496C1.97435 9.52676 1.93371 9.49718 1.94496 9.46146L2.03234 9.18542L1.79942 9.01338C1.76928 8.99107 1.78479 8.94331 1.82229 8.94298L2.11184 8.94077L2.20343 8.66609C2.2152 8.63051 2.26554 8.63051 2.2774 8.66609Z" fill="#F5F5F5"/>
<path d="M2.2774 10.1029L2.36899 10.3776L2.65854 10.3798C2.69604 10.3802 2.71155 10.428 2.68141 10.4502L2.44849 10.6223L2.53587 10.8983C2.54721 10.934 2.50648 10.9637 2.47596 10.9418L2.24041 10.7734L2.00487 10.9418C1.97435 10.9636 1.93371 10.934 1.94496 10.8983L2.03234 10.6223L1.79942 10.4502C1.76928 10.4279 1.78479 10.3802 1.82229 10.3798L2.11184 10.3776L2.20343 10.1029C2.2152 10.0674 2.26554 10.0674 2.2774 10.1029Z" fill="#F5F5F5"/>
<path d="M3.39263 5.08772L3.48423 5.36241L3.77377 5.36461C3.81127 5.36494 3.82679 5.41275 3.79665 5.43501L3.56373 5.60704L3.6511 5.88309C3.66245 5.91881 3.62171 5.94843 3.5912 5.92659L3.35565 5.75822L3.1201 5.92659C3.08959 5.94839 3.04895 5.91881 3.0602 5.88309L3.14757 5.60704L2.91465 5.43501C2.88451 5.4127 2.90003 5.36494 2.93753 5.36461L3.22707 5.36241L3.31867 5.08772C3.33048 5.05214 3.38077 5.05214 3.39263 5.08772Z" fill="#F5F5F5"/>
<path d="M3.39263 6.52463L3.48423 6.79932L3.77377 6.80152C3.81127 6.80185 3.82679 6.84967 3.79665 6.87193L3.56373 7.04396L3.6511 7.32001C3.66245 7.35573 3.62171 7.38535 3.5912 7.36351L3.35565 7.19513L3.1201 7.36351C3.08959 7.38531 3.04895 7.35573 3.0602 7.32001L3.14757 7.04396L2.91465 6.87193C2.88451 6.84962 2.90003 6.80185 2.93753 6.80152L3.22707 6.79932L3.31867 6.52463C3.33048 6.4891 3.38077 6.4891 3.39263 6.52463Z" fill="#F5F5F5"/>
<path d="M3.39263 7.96152L3.48423 8.23621L3.77377 8.23842C3.81127 8.23874 3.82679 8.28656 3.79665 8.30882L3.56373 8.48085L3.6511 8.7569C3.66245 8.79262 3.62171 8.82224 3.5912 8.8004L3.35565 8.63203L3.1201 8.8004C3.08959 8.8222 3.04895 8.79262 3.0602 8.7569L3.14757 8.48085L2.91465 8.30882C2.88451 8.28651 2.90003 8.23874 2.93753 8.23842L3.22707 8.23621L3.31867 7.96152C3.33048 7.92599 3.38077 7.92599 3.39263 7.96152Z" fill="#F5F5F5"/>
<path d="M3.39263 9.39845L3.48423 9.67314L3.77377 9.67534C3.81127 9.67567 3.82679 9.72348 3.79665 9.74574L3.56373 9.91778L3.6511 10.1938C3.66245 10.2295 3.62171 10.2592 3.5912 10.2373L3.35565 10.0689L3.1201 10.2373C3.08959 10.2591 3.04895 10.2295 3.0602 10.1938L3.14757 9.91778L2.91465 9.74574C2.88451 9.72343 2.90003 9.67567 2.93753 9.67534L3.22707 9.67314L3.31867 9.39845C3.33048 9.36287 3.38077 9.36287 3.39263 9.39845Z" fill="#F5F5F5"/>
<path d="M3.39263 10.8354L3.48423 11.1101L3.77377 11.1123C3.81127 11.1126 3.82679 11.1604 3.79665 11.1827L3.56373 11.3547L3.6511 11.6307C3.66245 11.6665 3.62171 11.6961 3.5912 11.6742L3.35565 11.5059L3.1201 11.6742C3.08959 11.696 3.04895 11.6665 3.0602 11.6307L3.14757 11.3547L2.91465 11.1827C2.88451 11.1604 2.90003 11.1126 2.93753 11.1123L3.22707 11.1101L3.31867 10.8354C3.33048 10.7997 3.38077 10.7997 3.39263 10.8354Z" fill="#F5F5F5"/>
<path d="M4.50805 5.79218L4.59964 6.06687L4.88919 6.06907C4.92669 6.0694 4.94221 6.11721 4.91207 6.13948L4.67914 6.31151L4.76652 6.58756C4.77786 6.62327 4.73713 6.6529 4.70661 6.63105L4.47107 6.46268L4.23552 6.63105C4.205 6.65285 4.16436 6.62327 4.17561 6.58756L4.26299 6.31151L4.03007 6.13948C3.99993 6.11717 4.01544 6.0694 4.05294 6.06907L4.34249 6.06687L4.43408 5.79218C4.44585 5.75665 4.49619 5.75665 4.50805 5.79218Z" fill="#F5F5F5"/>
<path d="M4.50805 7.22914L4.59964 7.50382L4.88919 7.50603C4.92669 7.50635 4.94221 7.55417 4.91207 7.57643L4.67914 7.74846L4.76652 8.02451C4.77786 8.06023 4.73713 8.08985 4.70661 8.06801L4.47107 7.89963L4.23552 8.06801C4.205 8.0898 4.16436 8.06027 4.17561 8.02451L4.26299 7.74846L4.03007 7.57643C3.99993 7.55412 4.01544 7.50635 4.05294 7.50603L4.34249 7.50382L4.43408 7.22914C4.44585 7.19356 4.49619 7.19356 4.50805 7.22914Z" fill="#F5F5F5"/>
<path d="M4.50805 8.66609L4.59964 8.94077L4.88919 8.94298C4.92669 8.94331 4.94221 8.99112 4.91207 9.01338L4.67914 9.18542L4.76652 9.46146C4.77786 9.49718 4.73713 9.52681 4.70661 9.50496L4.47107 9.33659L4.23552 9.50496C4.205 9.52676 4.16436 9.49718 4.17561 9.46146L4.26299 9.18542L4.03007 9.01338C3.99993 8.99107 4.01544 8.94331 4.05294 8.94298L4.34249 8.94077L4.43408 8.66609C4.44585 8.63051 4.49619 8.63051 4.50805 8.66609Z" fill="#F5F5F5"/>
<path d="M4.50805 10.1029L4.59964 10.3776L4.88919 10.3798C4.92669 10.3802 4.94221 10.428 4.91207 10.4502L4.67914 10.6223L4.76652 10.8983C4.77786 10.934 4.73713 10.9637 4.70661 10.9418L4.47107 10.7734L4.23552 10.9418C4.205 10.9636 4.16436 10.934 4.17561 10.8983L4.26299 10.6223L4.03007 10.4502C3.99993 10.4279 4.01544 10.3802 4.05294 10.3798L4.34249 10.3776L4.43408 10.1029C4.44585 10.0674 4.49619 10.0674 4.50805 10.1029Z" fill="#F5F5F5"/>
<path d="M5.62315 5.08772L5.71474 5.36241L6.00429 5.36461C6.04179 5.36494 6.0573 5.41275 6.02716 5.43501L5.79424 5.60704L5.88162 5.88309C5.89296 5.91881 5.85223 5.94843 5.82171 5.92659L5.58612 5.75822L5.35057 5.92659C5.32006 5.94839 5.27942 5.91881 5.29067 5.88309L5.37804 5.60704L5.14512 5.43501C5.11498 5.4127 5.13049 5.36494 5.16799 5.36461L5.45754 5.36241L5.54913 5.08772C5.56099 5.05214 5.61129 5.05214 5.62315 5.08772Z" fill="#F5F5F5"/>
<path d="M5.62315 6.52463L5.71474 6.79932L6.00429 6.80152C6.04179 6.80185 6.0573 6.84967 6.02716 6.87193L5.79424 7.04396L5.88162 7.32001C5.89296 7.35573 5.85223 7.38535 5.82171 7.36351L5.58612 7.19513L5.35057 7.36351C5.32006 7.38531 5.27942 7.35573 5.29067 7.32001L5.37804 7.04396L5.14512 6.87193C5.11498 6.84962 5.13049 6.80185 5.16799 6.80152L5.45754 6.79932L5.54913 6.52463C5.56099 6.4891 5.61129 6.4891 5.62315 6.52463Z" fill="#F5F5F5"/>
<path d="M5.62315 7.96152L5.71474 8.23621L6.00429 8.23842C6.04179 8.23874 6.0573 8.28656 6.02716 8.30882L5.79424 8.48085L5.88162 8.7569C5.89296 8.79262 5.85223 8.82224 5.82171 8.8004L5.58612 8.63203L5.35057 8.8004C5.32006 8.8222 5.27942 8.79262 5.29067 8.7569L5.37804 8.48085L5.14512 8.30882C5.11498 8.28651 5.13049 8.23874 5.16799 8.23842L5.45754 8.23621L5.54913 7.96152C5.56099 7.92599 5.61129 7.92599 5.62315 7.96152Z" fill="#F5F5F5"/>
<path d="M5.62315 9.39845L5.71474 9.67314L6.00429 9.67534C6.04179 9.67567 6.0573 9.72348 6.02716 9.74574L5.79424 9.91778L5.88162 10.1938C5.89296 10.2295 5.85223 10.2592 5.82171 10.2373L5.58612 10.0689L5.35057 10.2373C5.32006 10.2591 5.27942 10.2295 5.29067 10.1938L5.37804 9.91778L5.14512 9.74574C5.11498 9.72343 5.13049 9.67567 5.16799 9.67534L5.45754 9.67314L5.54913 9.39845C5.56099 9.36287 5.61129 9.36287 5.62315 9.39845Z" fill="#F5F5F5"/>
<path d="M5.62315 10.8354L5.71474 11.1101L6.00429 11.1123C6.04179 11.1126 6.0573 11.1604 6.02716 11.1827L5.79424 11.3547L5.88162 11.6307C5.89296 11.6665 5.85223 11.6961 5.82171 11.6742L5.58612 11.5059L5.35057 11.6742C5.32006 11.696 5.27942 11.6665 5.29067 11.6307L5.37804 11.3547L5.14512 11.1827C5.11498 11.1604 5.13049 11.1126 5.16799 11.1123L5.45754 11.1101L5.54913 10.8354C5.56099 10.7997 5.61129 10.7997 5.62315 10.8354Z" fill="#F5F5F5"/>
<path d="M6.73858 5.79218L6.83017 6.06687L7.11972 6.06907C7.15722 6.0694 7.17274 6.11721 7.1426 6.13948L6.90967 6.31151L6.99705 6.58756C7.00839 6.62327 6.96766 6.6529 6.93714 6.63105L6.7016 6.46268L6.46605 6.63105C6.43553 6.65285 6.39489 6.62327 6.40614 6.58756L6.49352 6.31151L6.2606 6.13948C6.23046 6.11717 6.24597 6.0694 6.28347 6.06907L6.57302 6.06687L6.66461 5.79218C6.67647 5.75665 6.72672 5.75665 6.73858 5.79218Z" fill="#F5F5F5"/>
<path d="M6.73858 7.22914L6.83017 7.50382L7.11972 7.50603C7.15722 7.50635 7.17274 7.55417 7.1426 7.57643L6.90967 7.74846L6.99705 8.02451C7.00839 8.06023 6.96766 8.08985 6.93714 8.06801L6.7016 7.89963L6.46605 8.06801C6.43553 8.0898 6.39489 8.06027 6.40614 8.02451L6.49352 7.74846L6.2606 7.57643C6.23046 7.55412 6.24597 7.50635 6.28347 7.50603L6.57302 7.50382L6.66461 7.22914C6.67647 7.19356 6.72672 7.19356 6.73858 7.22914Z" fill="#F5F5F5"/>
<path d="M6.73858 8.66609L6.83017 8.94077L7.11972 8.94298C7.15722 8.94331 7.17274 8.99112 7.1426 9.01338L6.90967 9.18542L6.99705 9.46146C7.00839 9.49718 6.96766 9.52681 6.93714 9.50496L6.7016 9.33659L6.46605 9.50496C6.43553 9.52676 6.39489 9.49718 6.40614 9.46146L6.49352 9.18542L6.2606 9.01338C6.23046 8.99107 6.24597 8.94331 6.28347 8.94298L6.57302 8.94077L6.66461 8.66609C6.67647 8.63051 6.72672 8.63051 6.73858 8.66609Z" fill="#F5F5F5"/>
<path d="M6.73858 10.1029L6.83017 10.3776L7.11972 10.3798C7.15722 10.3802 7.17274 10.428 7.1426 10.4502L6.90967 10.6223L6.99705 10.8983C7.00839 10.934 6.96766 10.9637 6.93714 10.9418L6.7016 10.7734L6.46605 10.9418C6.43553 10.9636 6.39489 10.934 6.40614 10.8983L6.49352 10.6223L6.2606 10.4502C6.23046 10.4279 6.24597 10.3802 6.28347 10.3798L6.57302 10.3776L6.66461 10.1029C6.67647 10.0674 6.72672 10.0674 6.73858 10.1029Z" fill="#F5F5F5"/>
<path d="M7.85375 5.08772L7.94535 5.36241L8.23489 5.36461C8.27239 5.36494 8.28791 5.41275 8.25777 5.43501L8.02485 5.60704L8.11222 5.88309C8.12357 5.91881 8.08283 5.94843 8.05232 5.92659L7.81677 5.75822L7.58122 5.92659C7.55071 5.94839 7.51007 5.91881 7.52132 5.88309L7.60869 5.60704L7.37577 5.43501C7.34563 5.4127 7.36115 5.36494 7.39865 5.36461L7.68819 5.36241L7.77979 5.08772C7.79155 5.05214 7.8419 5.05214 7.85375 5.08772Z" fill="#F5F5F5"/>
<path d="M7.85375 6.52463L7.94535 6.79932L8.23489 6.80152C8.27239 6.80185 8.28791 6.84967 8.25777 6.87193L8.02485 7.04396L8.11222 7.32001C8.12357 7.35573 8.08283 7.38535 8.05232 7.36351L7.81677 7.19513L7.58122 7.36351C7.55071 7.38531 7.51007 7.35573 7.52132 7.32001L7.60869 7.04396L7.37577 6.87193C7.34563 6.84962 7.36115 6.80185 7.39865 6.80152L7.68819 6.79932L7.77979 6.52463C7.79155 6.4891 7.8419 6.4891 7.85375 6.52463Z" fill="#F5F5F5"/>
<path d="M7.85375 7.96152L7.94535 8.23621L8.23489 8.23842C8.27239 8.23874 8.28791 8.28656 8.25777 8.30882L8.02485 8.48085L8.11222 8.7569C8.12357 8.79262 8.08283 8.82224 8.05232 8.8004L7.81677 8.63203L7.58122 8.8004C7.55071 8.8222 7.51007 8.79262 7.52132 8.7569L7.60869 8.48085L7.37577 8.30882C7.34563 8.28651 7.36115 8.23874 7.39865 8.23842L7.68819 8.23621L7.77979 7.96152C7.79155 7.92599 7.8419 7.92599 7.85375 7.96152Z" fill="#F5F5F5"/>
<path d="M7.85375 9.39845L7.94535 9.67314L8.23489 9.67534C8.27239 9.67567 8.28791 9.72348 8.25777 9.74574L8.02485 9.91778L8.11222 10.1938C8.12357 10.2295 8.08283 10.2592 8.05232 10.2373L7.81677 10.0689L7.58122 10.2373C7.55071 10.2591 7.51007 10.2295 7.52132 10.1938L7.60869 9.91778L7.37577 9.74574C7.34563 9.72343 7.36115 9.67567 7.39865 9.67534L7.68819 9.67314L7.77979 9.39845C7.79155 9.36287 7.8419 9.36287 7.85375 9.39845Z" fill="#F5F5F5"/>
<path d="M7.85375 10.8354L7.94535 11.1101L8.23489 11.1123C8.27239 11.1126 8.28791 11.1604 8.25777 11.1827L8.02485 11.3547L8.11222 11.6307C8.12357 11.6665 8.08283 11.6961 8.05232 11.6742L7.81677 11.5059L7.58122 11.6742C7.55071 11.696 7.51007 11.6665 7.52132 11.6307L7.60869 11.3547L7.37577 11.1827C7.34563 11.1604 7.36115 11.1126 7.39865 11.1123L7.68819 11.1101L7.77979 10.8354C7.79155 10.7997 7.8419 10.7997 7.85375 10.8354Z" fill="#F5F5F5"/>
<path d="M8.96936 5.79218L9.06095 6.06687L9.3505 6.06907C9.388 6.0694 9.40351 6.11721 9.37337 6.13948L9.14045 6.31151L9.22782 6.58756C9.23917 6.62327 9.19843 6.6529 9.16792 6.63105L8.93237 6.46268L8.69682 6.63105C8.66631 6.65285 8.62567 6.62327 8.63692 6.58756L8.72429 6.31151L8.49137 6.13948C8.46123 6.11717 8.47675 6.0694 8.51425 6.06907L8.80379 6.06687L8.89539 5.79218C8.9072 5.75665 8.95754 5.75665 8.96936 5.79218Z" fill="#F5F5F5"/>
<path d="M8.96936 7.22914L9.06095 7.50382L9.3505 7.50603C9.388 7.50635 9.40351 7.55417 9.37337 7.57643L9.14045 7.74846L9.22782 8.02451C9.23917 8.06023 9.19843 8.08985 9.16792 8.06801L8.93237 7.89963L8.69682 8.06801C8.66631 8.0898 8.62567 8.06027 8.63692 8.02451L8.72429 7.74846L8.49137 7.57643C8.46123 7.55412 8.47675 7.50635 8.51425 7.50603L8.80379 7.50382L8.89539 7.22914C8.9072 7.19356 8.95754 7.19356 8.96936 7.22914Z" fill="#F5F5F5"/>
<path d="M8.96936 8.66609L9.06095 8.94077L9.3505 8.94298C9.388 8.94331 9.40351 8.99112 9.37337 9.01338L9.14045 9.18542L9.22782 9.46146C9.23917 9.49718 9.19843 9.52681 9.16792 9.50496L8.93237 9.33659L8.69682 9.50496C8.66631 9.52676 8.62567 9.49718 8.63692 9.46146L8.72429 9.18542L8.49137 9.01338C8.46123 8.99107 8.47675 8.94331 8.51425 8.94298L8.80379 8.94077L8.89539 8.66609C8.9072 8.63051 8.95754 8.63051 8.96936 8.66609Z" fill="#F5F5F5"/>
<path d="M8.96936 10.1029L9.06095 10.3776L9.3505 10.3798C9.388 10.3802 9.40351 10.428 9.37337 10.4502L9.14045 10.6223L9.22782 10.8983C9.23917 10.934 9.19843 10.9637 9.16792 10.9418L8.93237 10.7734L8.69682 10.9418C8.66631 10.9636 8.62567 10.934 8.63692 10.8983L8.72429 10.6223L8.49137 10.4502C8.46123 10.4279 8.47675 10.3802 8.51425 10.3798L8.80379 10.3776L8.89539 10.1029C8.9072 10.0674 8.95754 10.0674 8.96936 10.1029Z" fill="#F5F5F5"/>
<path d="M10.0844 5.08772L10.176 5.36241L10.4655 5.36461C10.503 5.36494 10.5186 5.41275 10.4884 5.43501L10.2555 5.60704L10.3429 5.88309C10.3542 5.91881 10.3135 5.94843 10.283 5.92659L10.0474 5.75822L9.81188 5.92659C9.78136 5.94839 9.74072 5.91881 9.75197 5.88309L9.83934 5.60704L9.60642 5.43501C9.57628 5.4127 9.5918 5.36494 9.6293 5.36461L9.91884 5.36241L10.0104 5.08772C10.0222 5.05214 10.0725 5.05214 10.0844 5.08772Z" fill="#F5F5F5"/>
<path d="M10.0844 6.52463L10.176 6.79932L10.4655 6.80152C10.503 6.80185 10.5186 6.84967 10.4884 6.87193L10.2555 7.04396L10.3429 7.32001C10.3542 7.35573 10.3135 7.38535 10.283 7.36351L10.0474 7.19513L9.81188 7.36351C9.78136 7.38531 9.74072 7.35573 9.75197 7.32001L9.83934 7.04396L9.60642 6.87193C9.57628 6.84962 9.5918 6.80185 9.6293 6.80152L9.91884 6.79932L10.0104 6.52463C10.0222 6.4891 10.0725 6.4891 10.0844 6.52463Z" fill="#F5F5F5"/>
<path d="M10.0844 7.96152L10.176 8.23621L10.4655 8.23842C10.503 8.23874 10.5186 8.28656 10.4884 8.30882L10.2555 8.48085L10.3429 8.7569C10.3542 8.79262 10.3135 8.82224 10.283 8.8004L10.0474 8.63203L9.81188 8.8004C9.78136 8.8222 9.74072 8.79262 9.75197 8.7569L9.83934 8.48085L9.60642 8.30882C9.57628 8.28651 9.5918 8.23874 9.6293 8.23842L9.91884 8.23621L10.0104 7.96152C10.0222 7.92599 10.0725 7.92599 10.0844 7.96152Z" fill="#F5F5F5"/>
<path d="M10.0844 9.39845L10.176 9.67314L10.4655 9.67534C10.503 9.67567 10.5186 9.72348 10.4884 9.74574L10.2555 9.91778L10.3429 10.1938C10.3542 10.2295 10.3135 10.2592 10.283 10.2373L10.0474 10.0689L9.81188 10.2373C9.78136 10.2591 9.74072 10.2295 9.75197 10.1938L9.83934 9.91778L9.60642 9.74574C9.57628 9.72343 9.5918 9.67567 9.6293 9.67534L9.91884 9.67314L10.0104 9.39845C10.0222 9.36287 10.0725 9.36287 10.0844 9.39845Z" fill="#F5F5F5"/>
<path d="M10.0844 10.8354L10.176 11.1101L10.4655 11.1123C10.503 11.1126 10.5186 11.1604 10.4884 11.1827L10.2555 11.3547L10.3429 11.6307C10.3542 11.6665 10.3135 11.6961 10.283 11.6742L10.0474 11.5059L9.81188 11.6742C9.78136 11.696 9.74072 11.6665 9.75197 11.6307L9.83934 11.3547L9.60642 11.1827C9.57628 11.1604 9.5918 11.1126 9.6293 11.1123L9.91884 11.1101L10.0104 10.8354C10.0222 10.7997 10.0725 10.7997 10.0844 10.8354Z" fill="#F5F5F5"/>
</svg>
