<svg width="24" height="24" viewBox="0 0 24 24" fill="none" xmlns="http://www.w3.org/2000/svg">
<path d="M14.3661 9.63336C14.203 9.4702 13.9377 9.4702 13.7745 9.63336C13.6114 9.79652 13.6114 10.0626 13.7745 10.2249C14.2481 10.6985 14.51 11.3286 14.51 11.9997C14.51 13.3836 13.3838 14.5099 11.9998 14.5099C11.3288 14.5099 10.6987 14.2488 10.2251 13.7744C10.0619 13.6112 9.79668 13.6112 9.63351 13.7744C9.47035 13.9367 9.47035 14.2028 9.63351 14.366C10.2644 14.9985 11.1053 15.3466 11.9998 15.3466C13.8456 15.3466 15.3468 13.8455 15.3468 11.9997C15.3468 11.1052 14.9987 10.2642 14.3661 9.63336Z" fill="#2564AF"/>
<path d="M12.5832 8.71044C12.3933 8.67699 12.1991 8.65271 12 8.65271C10.1542 8.65271 8.65308 10.1538 8.65308 11.9996C8.65308 12.1988 8.67735 12.3929 8.71163 12.5828C8.7476 12.7853 8.92418 12.9284 9.12249 12.9284C9.14676 12.9284 9.171 12.9267 9.19611 12.9217C9.42285 12.8815 9.57515 12.664 9.53498 12.4372C9.50906 12.295 9.4898 12.1503 9.4898 11.9996C9.4898 10.6157 10.6161 9.48943 12 9.48943C12.1506 9.48943 12.2954 9.50869 12.4376 9.53379C12.6602 9.57898 12.8819 9.42166 12.9221 9.19491C12.9622 8.96817 12.81 8.75061 12.5832 8.71044Z" fill="#2564AF"/>
<path d="M21.9413 11.7294C21.8468 11.6173 19.5834 8.9757 16.4616 7.3583C16.2591 7.25205 16.0039 7.33238 15.8976 7.53821C15.7913 7.74323 15.8717 7.99589 16.0775 8.10219C18.4823 9.34725 20.4034 11.2901 21.0603 11.9997C20.0629 13.0799 16.1377 17.0201 12.0001 17.0201C10.5961 17.0201 9.18114 16.6812 7.793 16.0118C7.58716 15.9106 7.33532 15.9985 7.23491 16.2068C7.13368 16.4143 7.22154 16.6645 7.42988 16.7649C8.93181 17.4904 10.4697 17.8568 12.0001 17.8568C17.1553 17.8568 21.749 12.4984 21.9422 12.27C22.0744 12.1143 22.0736 11.8858 21.9413 11.7294Z" fill="#2564AF"/>
<path d="M14.7454 6.62454C13.7932 6.30406 12.8695 6.14258 12.0001 6.14258C6.84494 6.14258 2.25126 11.501 2.05798 11.7295C1.9358 11.8734 1.92576 12.0826 2.03456 12.239C2.0923 12.3219 3.47542 14.2857 5.87267 15.878C5.94378 15.9257 6.02328 15.9483 6.1036 15.9483C6.23833 15.9483 6.37137 15.883 6.4517 15.76C6.57972 15.5684 6.52701 15.3082 6.33454 15.181C4.57407 14.0104 3.36917 12.5972 2.91815 12.0223C3.88125 10.9764 7.83231 6.97934 12.0001 6.97934C12.7791 6.97934 13.6133 7.12662 14.4785 7.41694C14.6977 7.49558 14.9353 7.37427 15.0081 7.15419C15.0818 6.93498 14.9646 6.6982 14.7454 6.62454Z" fill="#2564AF"/>
<circle cx="12" cy="12" r="0.734694" fill="#2564AF"/>
</svg>
